<svg width="338" height="52" viewBox="0 0 338 52" fill="none" xmlns="http://www.w3.org/2000/svg">
<g filter="url(#filter0_d_4750_1444)">
<rect x="2" y="1" width="334" height="48" rx="24" fill="white"/>
<path d="M32.6719 22.4929C32.6188 22.0223 32.4001 21.6577 32.0156 21.3991C31.6312 21.1373 31.1473 21.0064 30.5639 21.0064C30.1463 21.0064 29.785 21.0727 29.4801 21.2053C29.1752 21.3345 28.9382 21.5135 28.7692 21.7422C28.6035 21.9676 28.5206 22.2244 28.5206 22.5128C28.5206 22.7547 28.5769 22.9635 28.6896 23.1392C28.8056 23.3149 28.9564 23.4624 29.142 23.5817C29.331 23.6977 29.5331 23.7955 29.7486 23.875C29.964 23.9512 30.1712 24.0142 30.37 24.0639L31.3643 24.3224C31.6892 24.402 32.0223 24.5097 32.3636 24.6456C32.705 24.7815 33.0215 24.9605 33.3132 25.1825C33.6049 25.4046 33.8402 25.6797 34.0192 26.0078C34.2015 26.3359 34.2926 26.7287 34.2926 27.1861C34.2926 27.7628 34.1435 28.2749 33.8452 28.7223C33.5502 29.1697 33.121 29.5227 32.5575 29.7812C31.9974 30.0398 31.3196 30.169 30.5241 30.169C29.7618 30.169 29.1023 30.0481 28.5455 29.8061C27.9886 29.5642 27.5528 29.2211 27.2379 28.777C26.9231 28.3295 26.7491 27.7992 26.7159 27.1861H28.2571C28.2869 27.554 28.4063 27.8606 28.6151 28.1058C28.8272 28.3478 29.0973 28.5284 29.4254 28.6477C29.7569 28.7637 30.1198 28.8217 30.5142 28.8217C30.9484 28.8217 31.3345 28.7538 31.6726 28.6179C32.014 28.4787 32.2824 28.2865 32.478 28.0412C32.6735 27.7926 32.7713 27.5026 32.7713 27.1712C32.7713 26.8696 32.6851 26.6226 32.5128 26.4304C32.3438 26.2382 32.1134 26.0791 31.8217 25.9531C31.5334 25.8272 31.2069 25.7161 30.8423 25.62L29.6392 25.2919C28.8239 25.0698 28.1776 24.7434 27.7003 24.3125C27.2263 23.8816 26.9893 23.3116 26.9893 22.6023C26.9893 22.0156 27.1484 21.5036 27.4666 21.0661C27.7848 20.6286 28.2157 20.2888 28.7592 20.0469C29.3028 19.8016 29.916 19.679 30.5987 19.679C31.2881 19.679 31.8963 19.8 32.4233 20.0419C32.9536 20.2839 33.3712 20.617 33.6761 21.0412C33.9811 21.4621 34.1402 21.946 34.1534 22.4929H32.6719ZM39.5737 22.3636V23.5568H35.4025V22.3636H39.5737ZM36.5211 20.5341H38.0076V27.7578C38.0076 28.0462 38.0507 28.2633 38.1369 28.4091C38.2231 28.5516 38.3341 28.6494 38.47 28.7024C38.6092 28.7521 38.76 28.777 38.9224 28.777C39.0417 28.777 39.1461 28.7687 39.2356 28.7521C39.3251 28.7356 39.3947 28.7223 39.4444 28.7124L39.7129 29.9403C39.6267 29.9735 39.5041 30.0066 39.345 30.0398C39.1859 30.0762 38.987 30.0961 38.7484 30.0994C38.3573 30.1061 37.9927 30.0365 37.6547 29.8906C37.3166 29.7448 37.0431 29.5194 36.8343 29.2145C36.6255 28.9096 36.5211 28.5268 36.5211 28.0661V20.5341ZM43.4403 30.169C42.9564 30.169 42.5189 30.0795 42.1278 29.9006C41.7367 29.7183 41.4268 29.4548 41.1982 29.1101C40.9728 28.7654 40.8601 28.3428 40.8601 27.8423C40.8601 27.4115 40.9429 27.0568 41.1087 26.7784C41.2744 26.5 41.4981 26.2796 41.7798 26.1172C42.0616 25.9548 42.3764 25.8321 42.7244 25.7493C43.0724 25.6664 43.4271 25.6035 43.7884 25.5604C44.2457 25.5073 44.617 25.4643 44.902 25.4311C45.187 25.3946 45.3942 25.3366 45.5234 25.2571C45.6527 25.1776 45.7173 25.0483 45.7173 24.8693V24.8345C45.7173 24.4003 45.5947 24.0639 45.3494 23.8253C45.1075 23.5866 44.7462 23.4673 44.2656 23.4673C43.7652 23.4673 43.3707 23.5784 43.0824 23.8004C42.7973 24.0192 42.6001 24.2628 42.4908 24.5312L41.0938 24.2131C41.2595 23.7491 41.5014 23.3745 41.8196 23.0895C42.1411 22.8011 42.5107 22.5923 42.9283 22.4631C43.3459 22.3305 43.785 22.2642 44.2457 22.2642C44.5507 22.2642 44.8738 22.3007 45.2152 22.3736C45.5599 22.4432 45.8814 22.5724 46.1797 22.7614C46.4813 22.9503 46.7282 23.2204 46.9205 23.5717C47.1127 23.9197 47.2088 24.3722 47.2088 24.929V30H45.7571V28.956H45.6974C45.6013 29.1482 45.4571 29.3371 45.2649 29.5227C45.0727 29.7083 44.8258 29.8625 44.5241 29.9851C44.2225 30.1077 43.8613 30.169 43.4403 30.169ZM43.7635 28.9759C44.1745 28.9759 44.5258 28.8946 44.8175 28.7322C45.1125 28.5698 45.3362 28.3577 45.4886 28.0959C45.6444 27.8307 45.7223 27.5473 45.7223 27.2457V26.2614C45.6693 26.3144 45.5665 26.3641 45.4141 26.4105C45.2649 26.4536 45.0942 26.4917 44.902 26.5249C44.7098 26.5547 44.5225 26.5829 44.3402 26.6094C44.1579 26.6326 44.0054 26.6525 43.8828 26.669C43.5945 26.7055 43.331 26.7668 43.0923 26.853C42.857 26.9392 42.6681 27.0634 42.5256 27.2259C42.3864 27.3849 42.3168 27.5971 42.3168 27.8622C42.3168 28.2301 42.4527 28.5085 42.7244 28.6974C42.9962 28.883 43.3426 28.9759 43.7635 28.9759ZM49.1887 30V22.3636H50.6255V23.5767H50.7051C50.8443 23.1657 51.0895 22.8426 51.4409 22.6072C51.7955 22.3686 52.1966 22.2493 52.644 22.2493C52.7368 22.2493 52.8462 22.2526 52.9721 22.2592C53.1014 22.2659 53.2025 22.2741 53.2754 22.2841V23.706C53.2157 23.6894 53.1097 23.6712 52.9572 23.6513C52.8047 23.6281 52.6523 23.6165 52.4998 23.6165C52.1485 23.6165 51.8353 23.6911 51.5602 23.8402C51.2884 23.986 51.073 24.1899 50.9139 24.4517C50.7548 24.7102 50.6752 25.0052 50.6752 25.3366V30H49.1887ZM58.5776 22.3636V23.5568H54.4064V22.3636H58.5776ZM55.525 20.5341H57.0115V27.7578C57.0115 28.0462 57.0546 28.2633 57.1408 28.4091C57.227 28.5516 57.338 28.6494 57.4739 28.7024C57.6131 28.7521 57.7639 28.777 57.9263 28.777C58.0456 28.777 58.15 28.7687 58.2395 28.7521C58.329 28.7356 58.3986 28.7223 58.4483 28.7124L58.7168 29.9403C58.6306 29.9735 58.508 30.0066 58.3489 30.0398C58.1898 30.0762 57.9909 30.0961 57.7523 30.0994C57.3612 30.1061 56.9966 30.0365 56.6586 29.8906C56.3205 29.7448 56.0471 29.5194 55.8382 29.2145C55.6294 28.9096 55.525 28.5268 55.525 28.0661V20.5341ZM64.8667 32.8636C64.6446 32.8636 64.4424 32.8454 64.2601 32.8089C64.0778 32.7758 63.9419 32.7393 63.8525 32.6996L64.2104 31.4815C64.4822 31.5545 64.7241 31.5859 64.9363 31.576C65.1484 31.5661 65.3356 31.4865 65.498 31.3374C65.6638 31.1882 65.8096 30.9446 65.9355 30.6065L66.1195 30.0994L63.3255 22.3636H64.9164L66.8503 28.2898H66.9299L68.8638 22.3636H70.4597L67.3127 31.0192C67.1668 31.4169 66.9812 31.7533 66.7559 32.0284C66.5305 32.3068 66.262 32.5156 65.9505 32.6548C65.6389 32.794 65.2776 32.8636 64.8667 32.8636ZM74.8136 30.1541C74.0977 30.1541 73.4729 29.9901 72.9393 29.6619C72.4057 29.3338 71.9914 28.8748 71.6964 28.2848C71.4014 27.6948 71.2539 27.0054 71.2539 26.2166C71.2539 25.4245 71.4014 24.7318 71.6964 24.1385C71.9914 23.5452 72.4057 23.0845 72.9393 22.7564C73.4729 22.4283 74.0977 22.2642 74.8136 22.2642C75.5295 22.2642 76.1542 22.4283 76.6879 22.7564C77.2215 23.0845 77.6358 23.5452 77.9308 24.1385C78.2257 24.7318 78.3732 25.4245 78.3732 26.2166C78.3732 27.0054 78.2257 27.6948 77.9308 28.2848C77.6358 28.8748 77.2215 29.3338 76.6879 29.6619C76.1542 29.9901 75.5295 30.1541 74.8136 30.1541ZM74.8185 28.9062C75.2826 28.9062 75.667 28.7836 75.9719 28.5384C76.2769 28.2931 76.5022 27.9666 76.6481 27.5589C76.7972 27.1513 76.8718 26.7022 76.8718 26.2116C76.8718 25.7244 76.7972 25.277 76.6481 24.8693C76.5022 24.4583 76.2769 24.1286 75.9719 23.88C75.667 23.6314 75.2826 23.5071 74.8185 23.5071C74.3512 23.5071 73.9634 23.6314 73.6552 23.88C73.3503 24.1286 73.1232 24.4583 72.9741 24.8693C72.8282 25.277 72.7553 25.7244 72.7553 26.2116C72.7553 26.7022 72.8282 27.1513 72.9741 27.5589C73.1232 27.9666 73.3503 28.2931 73.6552 28.5384C73.9634 28.7836 74.3512 28.9062 74.8185 28.9062ZM84.8699 26.8331V22.3636H86.3613V30H84.8997V28.6776H84.8201C84.6445 29.0852 84.3627 29.425 83.975 29.6967C83.5905 29.9652 83.1116 30.0994 82.5382 30.0994C82.0476 30.0994 81.6135 29.9917 81.2356 29.7763C80.8611 29.5575 80.5661 29.2344 80.3507 28.8068C80.1386 28.3793 80.0325 27.8506 80.0325 27.2209V22.3636H81.519V27.0419C81.519 27.5623 81.6632 27.9766 81.9515 28.2848C82.2399 28.593 82.6144 28.7472 83.0751 28.7472C83.3535 28.7472 83.6303 28.6776 83.9054 28.5384C84.1838 28.3991 84.4141 28.1887 84.5964 27.907C84.782 27.6252 84.8732 27.2673 84.8699 26.8331ZM88.3587 30V22.3636H89.7955V23.5767H89.875C90.0142 23.1657 90.2595 22.8426 90.6108 22.6072C90.9654 22.3686 91.3665 22.2493 91.8139 22.2493C91.9067 22.2493 92.0161 22.2526 92.142 22.2592C92.2713 22.2659 92.3724 22.2741 92.4453 22.2841V23.706C92.3857 23.6894 92.2796 23.6712 92.1271 23.6513C91.9747 23.6281 91.8222 23.6165 91.6697 23.6165C91.3184 23.6165 91.0052 23.6911 90.7301 23.8402C90.4583 23.986 90.2429 24.1899 90.0838 24.4517C89.9247 24.7102 89.8452 25.0052 89.8452 25.3366V30H88.3587ZM103.159 24.228L101.812 24.4666C101.755 24.2943 101.666 24.1302 101.543 23.9744C101.424 23.8187 101.262 23.6911 101.056 23.5916C100.851 23.4922 100.594 23.4425 100.286 23.4425C99.8646 23.4425 99.5133 23.5369 99.2315 23.7259C98.9498 23.9115 98.8089 24.1518 98.8089 24.4467C98.8089 24.7019 98.9034 24.9074 99.0923 25.0632C99.2813 25.219 99.5862 25.3466 100.007 25.446L101.22 25.7244C101.923 25.8868 102.446 26.1371 102.791 26.4751C103.136 26.8132 103.308 27.2524 103.308 27.7926C103.308 28.25 103.176 28.6577 102.911 29.0156C102.649 29.3703 102.282 29.6487 101.812 29.8509C101.344 30.053 100.803 30.1541 100.186 30.1541C99.331 30.1541 98.6333 29.9718 98.093 29.6072C97.5528 29.2393 97.2214 28.7173 97.0987 28.0412L98.5355 27.8224C98.625 28.197 98.8089 28.4804 99.0874 28.6726C99.3658 28.8615 99.7287 28.956 100.176 28.956C100.663 28.956 101.053 28.8549 101.344 28.6527C101.636 28.4472 101.782 28.197 101.782 27.902C101.782 27.6634 101.692 27.4628 101.513 27.3004C101.338 27.138 101.068 27.0154 100.703 26.9325L99.4105 26.6491C98.6979 26.4867 98.1709 26.2282 97.8295 25.8736C97.4915 25.5189 97.3224 25.0698 97.3224 24.5263C97.3224 24.0755 97.4484 23.6811 97.7003 23.343C97.9522 23.005 98.3002 22.7415 98.7443 22.5526C99.1884 22.3603 99.6972 22.2642 100.271 22.2642C101.096 22.2642 101.746 22.4432 102.219 22.8011C102.693 23.1558 103.007 23.6314 103.159 24.228ZM108.234 30.1541C107.481 30.1541 106.834 29.9934 106.29 29.6719C105.75 29.3471 105.332 28.8913 105.037 28.3047C104.745 27.7147 104.6 27.0237 104.6 26.2315C104.6 25.4493 104.745 24.7599 105.037 24.1634C105.332 23.5668 105.743 23.1011 106.27 22.7663C106.8 22.4316 107.42 22.2642 108.129 22.2642C108.56 22.2642 108.978 22.3355 109.382 22.478C109.787 22.6205 110.15 22.8442 110.471 23.1491C110.793 23.4541 111.046 23.8501 111.232 24.3374C111.417 24.8213 111.51 25.4096 111.51 26.1023V26.6293H105.44V25.5156H110.053C110.053 25.1245 109.974 24.7782 109.815 24.4766C109.656 24.1716 109.432 23.9313 109.144 23.7557C108.859 23.58 108.524 23.4922 108.139 23.4922C107.722 23.4922 107.357 23.5949 107.046 23.8004C106.737 24.0026 106.499 24.2678 106.33 24.5959C106.164 24.9207 106.081 25.2737 106.081 25.6548V26.5249C106.081 27.0353 106.171 27.4695 106.35 27.8274C106.532 28.1854 106.785 28.4588 107.11 28.6477C107.435 28.8333 107.815 28.9261 108.249 28.9261C108.53 28.9261 108.787 28.8864 109.019 28.8068C109.251 28.724 109.452 28.6013 109.621 28.4389C109.79 28.2765 109.919 28.076 110.009 27.8374L111.416 28.0909C111.303 28.5052 111.101 28.8681 110.809 29.1797C110.521 29.4879 110.158 29.7282 109.72 29.9006C109.286 30.0696 108.791 30.1541 108.234 30.1541ZM115.382 30.169C114.898 30.169 114.46 30.0795 114.069 29.9006C113.678 29.7183 113.368 29.4548 113.14 29.1101C112.914 28.7654 112.801 28.3428 112.801 27.8423C112.801 27.4115 112.884 27.0568 113.05 26.7784C113.216 26.5 113.44 26.2796 113.721 26.1172C114.003 25.9548 114.318 25.8321 114.666 25.7493C115.014 25.6664 115.368 25.6035 115.73 25.5604C116.187 25.5073 116.558 25.4643 116.843 25.4311C117.128 25.3946 117.336 25.3366 117.465 25.2571C117.594 25.1776 117.659 25.0483 117.659 24.8693V24.8345C117.659 24.4003 117.536 24.0639 117.291 23.8253C117.049 23.5866 116.688 23.4673 116.207 23.4673C115.707 23.4673 115.312 23.5784 115.024 23.8004C114.739 24.0192 114.542 24.2628 114.432 24.5312L113.035 24.2131C113.201 23.7491 113.443 23.3745 113.761 23.0895C114.083 22.8011 114.452 22.5923 114.87 22.4631C115.287 22.3305 115.726 22.2642 116.187 22.2642C116.492 22.2642 116.815 22.3007 117.157 22.3736C117.501 22.4432 117.823 22.5724 118.121 22.7614C118.423 22.9503 118.67 23.2204 118.862 23.5717C119.054 23.9197 119.15 24.3722 119.15 24.929V30H117.699V28.956H117.639C117.543 29.1482 117.399 29.3371 117.206 29.5227C117.014 29.7083 116.767 29.8625 116.466 29.9851C116.164 30.1077 115.803 30.169 115.382 30.169ZM115.705 28.9759C116.116 28.9759 116.467 28.8946 116.759 28.7322C117.054 28.5698 117.278 28.3577 117.43 28.0959C117.586 27.8307 117.664 27.5473 117.664 27.2457V26.2614C117.611 26.3144 117.508 26.3641 117.355 26.4105C117.206 26.4536 117.036 26.4917 116.843 26.5249C116.651 26.5547 116.464 26.5829 116.282 26.6094C116.099 26.6326 115.947 26.6525 115.824 26.669C115.536 26.7055 115.272 26.7668 115.034 26.853C114.798 26.9392 114.609 27.0634 114.467 27.2259C114.328 27.3849 114.258 27.5971 114.258 27.8622C114.258 28.2301 114.394 28.5085 114.666 28.6974C114.938 28.883 115.284 28.9759 115.705 28.9759ZM121.13 30V22.3636H122.567V23.5767H122.646C122.786 23.1657 123.031 22.8426 123.382 22.6072C123.737 22.3686 124.138 22.2493 124.585 22.2493C124.678 22.2493 124.788 22.2526 124.914 22.2592C125.043 22.2659 125.144 22.2741 125.217 22.2841V23.706C125.157 23.6894 125.051 23.6712 124.899 23.6513C124.746 23.6281 124.594 23.6165 124.441 23.6165C124.09 23.6165 123.777 23.6911 123.502 23.8402C123.23 23.986 123.014 24.1899 122.855 24.4517C122.696 24.7102 122.617 25.0052 122.617 25.3366V30H121.13ZM129.446 30.1541C128.707 30.1541 128.071 29.9867 127.537 29.652C127.007 29.3139 126.599 28.8482 126.314 28.255C126.029 27.6617 125.887 26.9822 125.887 26.2166C125.887 25.4411 126.033 24.7566 126.324 24.1634C126.616 23.5668 127.027 23.1011 127.557 22.7663C128.087 22.4316 128.712 22.2642 129.431 22.2642C130.011 22.2642 130.529 22.3719 130.983 22.5874C131.437 22.7995 131.803 23.0978 132.081 23.4822C132.363 23.8667 132.53 24.3158 132.583 24.8295H131.137C131.057 24.4716 130.875 24.1634 130.59 23.9048C130.308 23.6463 129.93 23.517 129.456 23.517C129.042 23.517 128.679 23.6264 128.368 23.8452C128.059 24.0606 127.819 24.3688 127.647 24.7699C127.474 25.1676 127.388 25.6383 127.388 26.1818C127.388 26.7386 127.473 27.2192 127.642 27.6236C127.811 28.0279 128.049 28.3411 128.358 28.5632C128.669 28.7853 129.035 28.8963 129.456 28.8963C129.738 28.8963 129.993 28.8449 130.222 28.7422C130.454 28.6361 130.648 28.4853 130.804 28.2898C130.963 28.0942 131.074 27.8589 131.137 27.5838H132.583C132.53 28.0777 132.37 28.5185 132.101 28.9062C131.833 29.294 131.473 29.599 131.022 29.821C130.575 30.0431 130.05 30.1541 129.446 30.1541ZM135.66 25.4659V30H134.173V19.8182H135.64V23.6065H135.734C135.913 23.1955 136.187 22.8691 136.555 22.6271C136.922 22.3852 137.403 22.2642 137.996 22.2642C138.52 22.2642 138.977 22.3719 139.368 22.5874C139.763 22.8028 140.068 23.1243 140.283 23.5518C140.502 23.9761 140.611 24.5064 140.611 25.1428V30H139.125V25.3217C139.125 24.7616 138.981 24.3274 138.692 24.0192C138.404 23.7076 138.003 23.5518 137.489 23.5518C137.138 23.5518 136.823 23.6264 136.545 23.7756C136.269 23.9247 136.052 24.1435 135.893 24.4318C135.738 24.7169 135.66 25.0616 135.66 25.4659Z" fill="black"/>
<g filter="url(#filter1_d_4750_1444)">
<rect x="296" y="9" width="32" height="32" rx="16" fill="#DE3151"/>
<path d="M318.042 31.0416L314.917 27.9166M305.958 24.1666C305.958 21.2901 308.29 18.9583 311.167 18.9583C314.043 18.9583 316.375 21.2901 316.375 24.1666C316.375 27.0431 314.043 29.3749 311.167 29.3749C308.29 29.3749 305.958 27.0431 305.958 24.1666Z" stroke="white" stroke-width="1.5" stroke-linecap="round" stroke-linejoin="round"/>
</g>
<rect x="2.5" y="1.5" width="333" height="47" rx="23.5" stroke="#E5E7EB"/>
</g>
<defs>
<filter id="filter0_d_4750_1444" x="0" y="0" width="338" height="52" filterUnits="userSpaceOnUse" color-interpolation-filters="sRGB">
<feFlood flood-opacity="0" result="BackgroundImageFix"/>
<feColorMatrix in="SourceAlpha" type="matrix" values="0 0 0 0 0 0 0 0 0 0 0 0 0 0 0 0 0 0 127 0" result="hardAlpha"/>
<feOffset dy="1"/>
<feGaussianBlur stdDeviation="1"/>
<feColorMatrix type="matrix" values="0 0 0 0 0.121569 0 0 0 0 0.160784 0 0 0 0 0.215686 0 0 0 0.08 0"/>
<feBlend mode="normal" in2="BackgroundImageFix" result="effect1_dropShadow_4750_1444"/>
<feBlend mode="normal" in="SourceGraphic" in2="effect1_dropShadow_4750_1444" result="shape"/>
</filter>
<filter id="filter1_d_4750_1444" x="294" y="8" width="36" height="36" filterUnits="userSpaceOnUse" color-interpolation-filters="sRGB">
<feFlood flood-opacity="0" result="BackgroundImageFix"/>
<feColorMatrix in="SourceAlpha" type="matrix" values="0 0 0 0 0 0 0 0 0 0 0 0 0 0 0 0 0 0 127 0" result="hardAlpha"/>
<feOffset dy="1"/>
<feGaussianBlur stdDeviation="1"/>
<feColorMatrix type="matrix" values="0 0 0 0 0.121569 0 0 0 0 0.160784 0 0 0 0 0.215686 0 0 0 0.08 0"/>
<feBlend mode="normal" in2="BackgroundImageFix" result="effect1_dropShadow_4750_1444"/>
<feBlend mode="normal" in="SourceGraphic" in2="effect1_dropShadow_4750_1444" result="shape"/>
</filter>
</defs>
</svg>
