<svg width="346" height="60" viewBox="0 0 346 60" fill="none" xmlns="http://www.w3.org/2000/svg">
<g filter="url(#filter0_dd_4456_877)">
<rect x="6" y="2" width="334" height="48" rx="24" fill="white"/>
<path d="M31.1186 31V20.8182H34.8473C35.5698 20.8182 36.1681 20.9375 36.642 21.1761C37.116 21.4115 37.4706 21.7313 37.706 22.1357C37.9413 22.5367 38.0589 22.9891 38.0589 23.4929C38.0589 23.9171 37.9811 24.2751 37.8253 24.5668C37.6695 24.8551 37.4607 25.0871 37.1989 25.2628C36.9403 25.4351 36.6553 25.5611 36.3438 25.6406V25.7401C36.6818 25.7566 37.0116 25.866 37.3331 26.0682C37.6579 26.267 37.9264 26.5504 38.1385 26.9183C38.3506 27.2862 38.4567 27.7337 38.4567 28.2607C38.4567 28.781 38.334 29.2483 38.0888 29.6626C37.8468 30.0736 37.4723 30.4001 36.9652 30.642C36.4581 30.8807 35.8101 31 35.0213 31H31.1186ZM32.6548 29.6825H34.8722C35.608 29.6825 36.1349 29.54 36.4531 29.255C36.7713 28.9699 36.9304 28.6136 36.9304 28.1861C36.9304 27.8646 36.8492 27.5696 36.6868 27.3011C36.5244 27.0327 36.2924 26.8189 35.9908 26.6598C35.6925 26.5007 35.3378 26.4212 34.9268 26.4212H32.6548V29.6825ZM32.6548 25.223H34.7131C35.0578 25.223 35.3677 25.1567 35.6428 25.0241C35.9212 24.8916 36.1416 24.706 36.304 24.4673C36.4697 24.2254 36.5526 23.9403 36.5526 23.6122C36.5526 23.1913 36.4051 22.8383 36.1101 22.5533C35.8151 22.2682 35.3627 22.1257 34.7528 22.1257H32.6548V25.223ZM43.3761 31.1541C42.6602 31.1541 42.0354 30.9901 41.5018 30.6619C40.9682 30.3338 40.5539 29.8748 40.2589 29.2848C39.9639 28.6948 39.8164 28.0054 39.8164 27.2166C39.8164 26.4245 39.9639 25.7318 40.2589 25.1385C40.5539 24.5452 40.9682 24.0845 41.5018 23.7564C42.0354 23.4283 42.6602 23.2642 43.3761 23.2642C44.092 23.2642 44.7167 23.4283 45.2504 23.7564C45.784 24.0845 46.1983 24.5452 46.4933 25.1385C46.7882 25.7318 46.9357 26.4245 46.9357 27.2166C46.9357 28.0054 46.7882 28.6948 46.4933 29.2848C46.1983 29.8748 45.784 30.3338 45.2504 30.6619C44.7167 30.9901 44.092 31.1541 43.3761 31.1541ZM43.381 29.9062C43.8451 29.9062 44.2295 29.7836 44.5344 29.5384C44.8394 29.2931 45.0647 28.9666 45.2106 28.5589C45.3597 28.1513 45.4343 27.7022 45.4343 27.2116C45.4343 26.7244 45.3597 26.277 45.2106 25.8693C45.0647 25.4583 44.8394 25.1286 44.5344 24.88C44.2295 24.6314 43.8451 24.5071 43.381 24.5071C42.9137 24.5071 42.5259 24.6314 42.2177 24.88C41.9128 25.1286 41.6857 25.4583 41.5366 25.8693C41.3907 26.277 41.3178 26.7244 41.3178 27.2116C41.3178 27.7022 41.3907 28.1513 41.5366 28.5589C41.6857 28.9666 41.9128 29.2931 42.2177 29.5384C42.5259 29.7836 42.9137 29.9062 43.381 29.9062ZM48.595 31V23.3636H50.0318V24.5767H50.1113C50.2505 24.1657 50.4958 23.8426 50.8471 23.6072C51.2018 23.3686 51.6028 23.2493 52.0502 23.2493C52.1431 23.2493 52.2524 23.2526 52.3784 23.2592C52.5076 23.2659 52.6087 23.2741 52.6816 23.2841V24.706C52.622 24.6894 52.5159 24.6712 52.3635 24.6513C52.211 24.6281 52.0585 24.6165 51.9061 24.6165C51.5547 24.6165 51.2415 24.6911 50.9664 24.8402C50.6947 24.986 50.4792 25.1899 50.3201 25.4517C50.161 25.7102 50.0815 26.0052 50.0815 26.3366V31H48.595ZM56.5533 31.1491C55.9368 31.1491 55.3866 30.9917 54.9027 30.6768C54.4221 30.3587 54.0443 29.9062 53.7692 29.3196C53.4974 28.7296 53.3615 28.022 53.3615 27.1967C53.3615 26.3714 53.4991 25.6655 53.7741 25.0788C54.0526 24.4922 54.4337 24.0431 54.9176 23.7315C55.4015 23.42 55.95 23.2642 56.5632 23.2642C57.0372 23.2642 57.4183 23.3438 57.7067 23.5028C57.9983 23.6586 58.2237 23.8409 58.3828 24.0497C58.5452 24.2585 58.6712 24.4425 58.7607 24.6016H58.8501V20.8182H60.3366V31H58.8849V29.8118H58.7607C58.6712 29.9742 58.5419 30.1598 58.3729 30.3686C58.2071 30.5774 57.9785 30.7597 57.6868 30.9155C57.3951 31.0713 57.0173 31.1491 56.5533 31.1491ZM56.8814 29.8814C57.3089 29.8814 57.6702 29.7687 57.9652 29.5433C58.2635 29.3146 58.4889 28.9981 58.6413 28.5938C58.7971 28.1894 58.875 27.7187 58.875 27.1818C58.875 26.6515 58.7988 26.1875 58.6463 25.7898C58.4938 25.392 58.2701 25.0821 57.9751 24.8601C57.6802 24.638 57.3156 24.527 56.8814 24.527C56.4339 24.527 56.0611 24.643 55.7628 24.875C55.4645 25.107 55.2391 25.4235 55.0866 25.8246C54.9375 26.2256 54.8629 26.678 54.8629 27.1818C54.8629 27.6922 54.9392 28.1513 55.0916 28.5589C55.2441 28.9666 55.4695 29.2898 55.7678 29.5284C56.0694 29.7637 56.4406 29.8814 56.8814 29.8814ZM65.7495 31.1541C64.9971 31.1541 64.3491 30.9934 63.8056 30.6719C63.2653 30.3471 62.8477 29.8913 62.5527 29.3047C62.2611 28.7147 62.1152 28.0237 62.1152 27.2315C62.1152 26.4493 62.2611 25.7599 62.5527 25.1634C62.8477 24.5668 63.2587 24.1011 63.7857 23.7663C64.316 23.4316 64.9358 23.2642 65.6451 23.2642C66.0759 23.2642 66.4935 23.3355 66.8979 23.478C67.3023 23.6205 67.6652 23.8442 67.9867 24.1491C68.3082 24.4541 68.5617 24.8501 68.7473 25.3374C68.9329 25.8213 69.0257 26.4096 69.0257 27.1023V27.6293H62.9554V26.5156H67.5691C67.5691 26.1245 67.4895 25.7782 67.3304 25.4766C67.1713 25.1716 66.9476 24.9313 66.6593 24.7557C66.3742 24.58 66.0395 24.4922 65.655 24.4922C65.2374 24.4922 64.8728 24.5949 64.5613 24.8004C64.253 25.0026 64.0144 25.2678 63.8453 25.5959C63.6796 25.9207 63.5968 26.2737 63.5968 26.6548V27.5249C63.5968 28.0353 63.6863 28.4695 63.8652 28.8274C64.0475 29.1854 64.3011 29.4588 64.6259 29.6477C64.9507 29.8333 65.3302 29.9261 65.7644 29.9261C66.0461 29.9261 66.303 29.8864 66.535 29.8068C66.767 29.724 66.9675 29.6013 67.1365 29.4389C67.3056 29.2765 67.4348 29.076 67.5243 28.8374L68.9313 29.0909C68.8186 29.5052 68.6164 29.8681 68.3248 30.1797C68.0364 30.4879 67.6735 30.7282 67.236 30.9006C66.8018 31.0696 66.3063 31.1541 65.7495 31.1541ZM72.8974 31.169C72.4135 31.169 71.976 31.0795 71.5849 30.9006C71.1938 30.7183 70.8839 30.4548 70.6552 30.1101C70.4298 29.7654 70.3171 29.3428 70.3171 28.8423C70.3171 28.4115 70.4 28.0568 70.5657 27.7784C70.7314 27.5 70.9551 27.2796 71.2369 27.1172C71.5186 26.9548 71.8335 26.8321 72.1815 26.7493C72.5295 26.6664 72.8841 26.6035 73.2454 26.5604C73.7028 26.5073 74.074 26.4643 74.359 26.4311C74.6441 26.3946 74.8512 26.3366 74.9805 26.2571C75.1097 26.1776 75.1744 26.0483 75.1744 25.8693V25.8345C75.1744 25.4003 75.0517 25.0639 74.8065 24.8253C74.5645 24.5866 74.2032 24.4673 73.7227 24.4673C73.2222 24.4673 72.8278 24.5784 72.5394 24.8004C72.2544 25.0192 72.0572 25.2628 71.9478 25.5312L70.5508 25.2131C70.7165 24.7491 70.9585 24.3745 71.2766 24.0895C71.5981 23.8011 71.9677 23.5923 72.3853 23.4631C72.8029 23.3305 73.2421 23.2642 73.7028 23.2642C74.0077 23.2642 74.3308 23.3007 74.6722 23.3736C75.0169 23.4432 75.3384 23.5724 75.6367 23.7614C75.9383 23.9503 76.1853 24.2204 76.3775 24.5717C76.5697 24.9197 76.6658 25.3722 76.6658 25.929V31H75.2141V29.956H75.1545C75.0584 30.1482 74.9142 30.3371 74.7219 30.5227C74.5297 30.7083 74.2828 30.8625 73.9812 30.9851C73.6796 31.1077 73.3183 31.169 72.8974 31.169ZM73.2205 29.9759C73.6315 29.9759 73.9828 29.8946 74.2745 29.7322C74.5695 29.5698 74.7932 29.3577 74.9457 29.0959C75.1014 28.8307 75.1793 28.5473 75.1793 28.2457V27.2614C75.1263 27.3144 75.0236 27.3641 74.8711 27.4105C74.7219 27.4536 74.5513 27.4917 74.359 27.5249C74.1668 27.5547 73.9795 27.5829 73.7972 27.6094C73.6149 27.6326 73.4625 27.6525 73.3398 27.669C73.0515 27.7055 72.788 27.7668 72.5494 27.853C72.314 27.9392 72.1251 28.0634 71.9826 28.2259C71.8434 28.3849 71.7738 28.5971 71.7738 28.8622C71.7738 29.2301 71.9097 29.5085 72.1815 29.6974C72.4532 29.883 72.7996 29.9759 73.2205 29.9759ZM83.4831 27.8331V23.3636H84.9746V31H83.513V29.6776H83.4334C83.2578 30.0852 82.976 30.425 82.5882 30.6967C82.2038 30.9652 81.7248 31.0994 81.1515 31.0994C80.6609 31.0994 80.2267 30.9917 79.8489 30.7763C79.4744 30.5575 79.1794 30.2344 78.964 29.8068C78.7518 29.3793 78.6458 28.8506 78.6458 28.2209V23.3636H80.1323V28.0419C80.1323 28.5623 80.2765 28.9766 80.5648 29.2848C80.8532 29.593 81.2277 29.7472 81.6884 29.7472C81.9668 29.7472 82.2435 29.6776 82.5186 29.5384C82.7971 29.3991 83.0274 29.1887 83.2097 28.907C83.3953 28.6252 83.4864 28.2673 83.4831 27.8331ZM88.1452 23.3636L89.8306 26.3366L91.5309 23.3636H93.1566L90.7752 27.1818L93.1765 31H91.5508L89.8306 28.1463L88.1154 31H86.4847L88.8612 27.1818L86.5146 23.3636H88.1452Z" fill="black"/>
<line x1="110.5" y1="14" x2="110.5" y2="38" stroke="#E5E7EB"/>
<path d="M127.119 31V20.8182H133.433V22.1406H128.655V25.2429H132.98V26.5604H128.655V31H127.119ZM137.933 31.1541C137.181 31.1541 136.533 30.9934 135.989 30.6719C135.449 30.3471 135.031 29.8913 134.736 29.3047C134.445 28.7147 134.299 28.0237 134.299 27.2315C134.299 26.4493 134.445 25.7599 134.736 25.1634C135.031 24.5668 135.442 24.1011 135.969 23.7663C136.5 23.4316 137.119 23.2642 137.829 23.2642C138.26 23.2642 138.677 23.3355 139.081 23.478C139.486 23.6205 139.849 23.8442 140.17 24.1491C140.492 24.4541 140.745 24.8501 140.931 25.3374C141.117 25.8213 141.209 26.4096 141.209 27.1023V27.6293H135.139V26.5156H139.753C139.753 26.1245 139.673 25.7782 139.514 25.4766C139.355 25.1716 139.131 24.9313 138.843 24.7557C138.558 24.58 138.223 24.4922 137.839 24.4922C137.421 24.4922 137.056 24.5949 136.745 24.8004C136.437 25.0026 136.198 25.2678 136.029 25.5959C135.863 25.9207 135.78 26.2737 135.78 26.6548V27.5249C135.78 28.0353 135.87 28.4695 136.049 28.8274C136.231 29.1854 136.485 29.4588 136.809 29.6477C137.134 29.8333 137.514 29.9261 137.948 29.9261C138.23 29.9261 138.487 29.8864 138.719 29.8068C138.951 29.724 139.151 29.6013 139.32 29.4389C139.489 29.2765 139.618 29.076 139.708 28.8374L141.115 29.0909C141.002 29.5052 140.8 29.8681 140.508 30.1797C140.22 30.4879 139.857 30.7282 139.42 30.9006C138.985 31.0696 138.49 31.1541 137.933 31.1541ZM142.978 31V20.8182H144.464V24.6016H144.554C144.64 24.4425 144.764 24.2585 144.927 24.0497C145.089 23.8409 145.315 23.6586 145.603 23.5028C145.891 23.3438 146.272 23.2642 146.746 23.2642C147.363 23.2642 147.913 23.42 148.397 23.7315C148.881 24.0431 149.26 24.4922 149.536 25.0788C149.814 25.6655 149.953 26.3714 149.953 27.1967C149.953 28.022 149.816 28.7296 149.54 29.3196C149.265 29.9062 148.888 30.3587 148.407 30.6768C147.926 30.9917 147.378 31.1491 146.761 31.1491C146.297 31.1491 145.918 31.0713 145.623 30.9155C145.331 30.7597 145.103 30.5774 144.937 30.3686C144.771 30.1598 144.643 29.9742 144.554 29.8118H144.43V31H142.978ZM144.435 27.1818C144.435 27.7187 144.513 28.1894 144.668 28.5938C144.824 28.9981 145.049 29.3146 145.344 29.5433C145.639 29.7687 146.001 29.8814 146.428 29.8814C146.872 29.8814 147.244 29.7637 147.542 29.5284C147.84 29.2898 148.066 28.9666 148.218 28.5589C148.374 28.1513 148.452 27.6922 148.452 27.1818C148.452 26.678 148.375 26.2256 148.223 25.8246C148.074 25.4235 147.848 25.107 147.547 24.875C147.249 24.643 146.876 24.527 146.428 24.527C145.997 24.527 145.633 24.638 145.335 24.8601C145.04 25.0821 144.816 25.392 144.663 25.7898C144.511 26.1875 144.435 26.6515 144.435 27.1818ZM159.17 20.8182V31H157.629V22.3594H157.57L155.134 23.9503V22.4787L157.674 20.8182H159.17ZM165.31 20.679C165.764 20.6823 166.212 20.7652 166.653 20.9276C167.094 21.09 167.491 21.3551 167.846 21.723C168.204 22.0909 168.489 22.5881 168.701 23.2145C168.916 23.8376 169.026 24.6132 169.029 25.5412C169.029 26.4328 168.94 27.2266 168.761 27.9226C168.582 28.6153 168.325 29.2003 167.99 29.6776C167.659 30.1548 167.256 30.5178 166.782 30.7663C166.308 31.0149 165.774 31.1392 165.181 31.1392C164.575 31.1392 164.036 31.0199 163.565 30.7812C163.095 30.5426 162.712 30.2128 162.417 29.7919C162.122 29.3677 161.938 28.8804 161.865 28.3303H163.381C163.481 28.7678 163.683 29.1224 163.988 29.3942C164.296 29.6626 164.694 29.7969 165.181 29.7969C165.927 29.7969 166.509 29.4721 166.926 28.8224C167.344 28.1695 167.554 27.258 167.558 26.0881H167.478C167.306 26.3731 167.09 26.6184 166.832 26.8239C166.576 27.0294 166.29 27.1884 165.972 27.3011C165.653 27.4138 165.314 27.4702 164.952 27.4702C164.366 27.4702 163.832 27.326 163.352 27.0376C162.871 26.7493 162.488 26.3532 162.203 25.8494C161.918 25.3456 161.776 24.7706 161.776 24.1243C161.776 23.4813 161.921 22.898 162.213 22.3743C162.508 21.8506 162.919 21.4363 163.446 21.1314C163.976 20.8232 164.598 20.6723 165.31 20.679ZM165.315 21.9716C164.928 21.9716 164.578 22.0677 164.266 22.2599C163.958 22.4489 163.714 22.7057 163.536 23.0305C163.357 23.352 163.267 23.71 163.267 24.1044C163.267 24.4988 163.353 24.8568 163.526 25.1783C163.701 25.4964 163.94 25.75 164.241 25.9389C164.546 26.1245 164.894 26.2173 165.286 26.2173C165.577 26.2173 165.849 26.161 166.101 26.0483C166.353 25.9356 166.573 25.7798 166.762 25.581C166.951 25.3788 167.098 25.1501 167.205 24.8949C167.311 24.6397 167.364 24.3712 167.364 24.0895C167.364 23.715 167.274 23.367 167.095 23.0455C166.92 22.724 166.678 22.4654 166.369 22.2699C166.061 22.071 165.71 21.9716 165.315 21.9716ZM175.344 25.2628V26.5554H170.83V25.2628H175.344ZM176.895 31V29.8864L180.341 26.3168C180.709 25.929 181.012 25.5893 181.251 25.2976C181.492 25.0026 181.673 24.7225 181.792 24.4574C181.912 24.1922 181.971 23.9105 181.971 23.6122C181.971 23.2741 181.892 22.9825 181.733 22.7372C181.574 22.4886 181.357 22.2981 181.081 22.1655C180.806 22.0296 180.497 21.9616 180.152 21.9616C179.787 21.9616 179.469 22.0362 179.197 22.1854C178.925 22.3345 178.717 22.545 178.571 22.8168C178.425 23.0885 178.352 23.4067 178.352 23.7713H176.885C176.885 23.1515 177.028 22.6096 177.313 22.1456C177.598 21.6816 177.989 21.322 178.486 21.0668C178.983 20.8082 179.549 20.679 180.182 20.679C180.821 20.679 181.385 20.8066 181.872 21.0618C182.363 21.3137 182.745 21.6584 183.02 22.0959C183.296 22.5301 183.433 23.0206 183.433 23.5675C183.433 23.9453 183.362 24.3149 183.219 24.6761C183.08 25.0374 182.836 25.4401 182.488 25.8842C182.14 26.325 181.657 26.8603 181.037 27.4901L179.013 29.608V29.6825H183.597V31H176.895ZM189.036 31.1392C188.582 31.1326 188.135 31.0497 187.694 30.8906C187.256 30.7315 186.858 30.4664 186.501 30.0952C186.143 29.724 185.856 29.2251 185.64 28.5987C185.428 27.9723 185.322 27.1901 185.322 26.2521C185.322 25.3639 185.41 24.575 185.586 23.8857C185.765 23.1963 186.022 22.6146 186.356 22.1406C186.691 21.6634 187.095 21.3004 187.569 21.0518C188.043 20.8033 188.575 20.679 189.165 20.679C189.772 20.679 190.31 20.7983 190.781 21.0369C191.252 21.2756 191.633 21.6054 191.925 22.0263C192.22 22.4472 192.407 22.9261 192.486 23.4631H190.97C190.867 23.0388 190.663 22.6925 190.358 22.424C190.054 22.1555 189.656 22.0213 189.165 22.0213C188.42 22.0213 187.838 22.3461 187.42 22.9957C187.006 23.6454 186.797 24.5485 186.794 25.7053H186.868C187.044 25.4169 187.26 25.1716 187.515 24.9695C187.773 24.764 188.062 24.6065 188.38 24.4972C188.701 24.3845 189.039 24.3281 189.394 24.3281C189.984 24.3281 190.518 24.4723 190.995 24.7607C191.475 25.0457 191.858 25.4401 192.143 25.9439C192.428 26.4477 192.571 27.0244 192.571 27.674C192.571 28.3236 192.423 28.9119 192.128 29.4389C191.837 29.9659 191.426 30.3835 190.895 30.6918C190.365 30.9967 189.745 31.1458 189.036 31.1392ZM189.031 29.8466C189.422 29.8466 189.772 29.7505 190.08 29.5582C190.388 29.366 190.632 29.1075 190.811 28.7827C190.99 28.4579 191.079 28.0949 191.079 27.6939C191.079 27.3028 190.992 26.9465 190.816 26.625C190.644 26.3035 190.405 26.0483 190.1 25.8594C189.798 25.6705 189.454 25.576 189.066 25.576C188.771 25.576 188.497 25.6323 188.246 25.745C187.997 25.8577 187.778 26.0135 187.589 26.2124C187.4 26.4112 187.251 26.6399 187.142 26.8984C187.036 27.1536 186.983 27.4238 186.983 27.7088C186.983 28.09 187.071 28.4429 187.246 28.7678C187.425 29.0926 187.669 29.3544 187.977 29.5533C188.289 29.7488 188.64 29.8466 189.031 29.8466Z" fill="black"/>
<line x1="210.5" y1="14" x2="210.5" y2="38" stroke="#E5E7EB"/>
<path d="M226.979 31V29.8864L230.425 26.3168C230.793 25.929 231.096 25.5893 231.335 25.2976C231.576 25.0026 231.757 24.7225 231.876 24.4574C231.996 24.1922 232.055 23.9105 232.055 23.6122C232.055 23.2741 231.976 22.9825 231.817 22.7372C231.658 22.4886 231.441 22.2981 231.165 22.1655C230.89 22.0296 230.58 21.9616 230.236 21.9616C229.871 21.9616 229.553 22.0362 229.281 22.1854C229.009 22.3345 228.801 22.545 228.655 22.8168C228.509 23.0885 228.436 23.4067 228.436 23.7713H226.969C226.969 23.1515 227.112 22.6096 227.397 22.1456C227.682 21.6816 228.073 21.322 228.57 21.0668C229.067 20.8082 229.633 20.679 230.266 20.679C230.905 20.679 231.469 20.8066 231.956 21.0618C232.446 21.3137 232.829 21.6584 233.104 22.0959C233.379 22.5301 233.517 23.0206 233.517 23.5675C233.517 23.9453 233.446 24.3149 233.303 24.6761C233.164 25.0374 232.92 25.4401 232.572 25.8842C232.224 26.325 231.741 26.8603 231.121 27.4901L229.097 29.608V29.6825H233.681V31H226.979ZM242.492 34.0227C241.885 34.0227 241.363 33.9432 240.926 33.7841C240.492 33.625 240.137 33.4145 239.862 33.1527C239.587 32.8909 239.381 32.6042 239.246 32.2926L240.523 31.7656C240.613 31.9115 240.732 32.0656 240.881 32.228C241.034 32.3937 241.239 32.5346 241.498 32.6506C241.76 32.7666 242.096 32.8246 242.507 32.8246C243.07 32.8246 243.536 32.687 243.904 32.4119C244.272 32.1402 244.456 31.706 244.456 31.1094V29.608H244.361C244.272 29.7704 244.143 29.951 243.974 30.1499C243.808 30.3487 243.579 30.5211 243.287 30.6669C242.996 30.8127 242.616 30.8857 242.149 30.8857C241.546 30.8857 241.002 30.7448 240.518 30.4631C240.038 30.178 239.657 29.7588 239.375 29.2053C239.096 28.6484 238.957 27.964 238.957 27.152C238.957 26.34 239.095 25.6439 239.37 25.0639C239.648 24.4839 240.029 24.0398 240.513 23.7315C240.997 23.42 241.546 23.2642 242.159 23.2642C242.633 23.2642 243.016 23.3438 243.307 23.5028C243.599 23.6586 243.826 23.8409 243.988 24.0497C244.154 24.2585 244.282 24.4425 244.371 24.6016H244.481V23.3636H245.937V31.169C245.937 31.8253 245.785 32.3639 245.48 32.7848C245.175 33.2057 244.762 33.5173 244.242 33.7195C243.725 33.9216 243.142 34.0227 242.492 34.0227ZM242.477 29.6527C242.905 29.6527 243.266 29.5533 243.561 29.3544C243.859 29.1522 244.085 28.8639 244.237 28.4893C244.393 28.1115 244.471 27.6591 244.471 27.1321C244.471 26.6184 244.394 26.166 244.242 25.7749C244.09 25.3838 243.866 25.0788 243.571 24.8601C243.276 24.638 242.911 24.527 242.477 24.527C242.03 24.527 241.657 24.643 241.358 24.875C241.06 25.1037 240.835 25.4152 240.682 25.8097C240.533 26.2041 240.459 26.6449 240.459 27.1321C240.459 27.6326 240.535 28.0717 240.687 28.4496C240.84 28.8274 241.065 29.1224 241.363 29.3345C241.665 29.5466 242.036 29.6527 242.477 29.6527ZM252.768 27.8331V23.3636H254.26V31H252.798V29.6776H252.719C252.543 30.0852 252.261 30.425 251.873 30.6967C251.489 30.9652 251.01 31.0994 250.437 31.0994C249.946 31.0994 249.512 30.9917 249.134 30.7763C248.76 30.5575 248.465 30.2344 248.249 29.8068C248.037 29.3793 247.931 28.8506 247.931 28.2209V23.3636H249.417V28.0419C249.417 28.5623 249.562 28.9766 249.85 29.2848C250.138 29.593 250.513 29.7472 250.974 29.7472C251.252 29.7472 251.529 29.6776 251.804 29.5384C252.082 29.3991 252.313 29.1887 252.495 28.907C252.68 28.6252 252.772 28.2673 252.768 27.8331ZM259.548 31.1541C258.796 31.1541 258.148 30.9934 257.604 30.6719C257.064 30.3471 256.647 29.8913 256.352 29.3047C256.06 28.7147 255.914 28.0237 255.914 27.2315C255.914 26.4493 256.06 25.7599 256.352 25.1634C256.647 24.5668 257.058 24.1011 257.585 23.7663C258.115 23.4316 258.735 23.2642 259.444 23.2642C259.875 23.2642 260.292 23.3355 260.697 23.478C261.101 23.6205 261.464 23.8442 261.786 24.1491C262.107 24.4541 262.361 24.8501 262.546 25.3374C262.732 25.8213 262.825 26.4096 262.825 27.1023V27.6293H256.754V26.5156H261.368C261.368 26.1245 261.288 25.7782 261.129 25.4766C260.97 25.1716 260.746 24.9313 260.458 24.7557C260.173 24.58 259.838 24.4922 259.454 24.4922C259.036 24.4922 258.672 24.5949 258.36 24.8004C258.052 25.0026 257.813 25.2678 257.644 25.5959C257.478 25.9207 257.396 26.2737 257.396 26.6548V27.5249C257.396 28.0353 257.485 28.4695 257.664 28.8274C257.846 29.1854 258.1 29.4588 258.425 29.6477C258.75 29.8333 259.129 29.9261 259.563 29.9261C259.845 29.9261 260.102 29.8864 260.334 29.8068C260.566 29.724 260.766 29.6013 260.935 29.4389C261.104 29.2765 261.234 29.076 261.323 28.8374L262.73 29.0909C262.617 29.5052 262.415 29.8681 262.124 30.1797C261.835 30.4879 261.472 30.7282 261.035 30.9006C260.601 31.0696 260.105 31.1541 259.548 31.1541ZM270.196 25.228L268.849 25.4666C268.793 25.2943 268.703 25.1302 268.58 24.9744C268.461 24.8187 268.299 24.6911 268.093 24.5916C267.888 24.4922 267.631 24.4425 267.323 24.4425C266.902 24.4425 266.55 24.5369 266.269 24.7259C265.987 24.9115 265.846 25.1518 265.846 25.4467C265.846 25.7019 265.941 25.9074 266.129 26.0632C266.318 26.219 266.623 26.3466 267.044 26.446L268.257 26.7244C268.96 26.8868 269.484 27.1371 269.828 27.4751C270.173 27.8132 270.345 28.2524 270.345 28.7926C270.345 29.25 270.213 29.6577 269.948 30.0156C269.686 30.3703 269.32 30.6487 268.849 30.8509C268.382 31.053 267.84 31.1541 267.223 31.1541C266.368 31.1541 265.67 30.9718 265.13 30.6072C264.59 30.2393 264.258 29.7173 264.136 29.0412L265.573 28.8224C265.662 29.197 265.846 29.4804 266.124 29.6726C266.403 29.8615 266.766 29.956 267.213 29.956C267.7 29.956 268.09 29.8549 268.382 29.6527C268.673 29.4472 268.819 29.197 268.819 28.902C268.819 28.6634 268.73 28.4628 268.551 28.3004C268.375 28.138 268.105 28.0154 267.74 27.9325L266.448 27.6491C265.735 27.4867 265.208 27.2282 264.867 26.8736C264.529 26.5189 264.36 26.0698 264.36 25.5263C264.36 25.0755 264.485 24.6811 264.737 24.343C264.989 24.005 265.337 23.7415 265.781 23.5526C266.226 23.3603 266.734 23.2642 267.308 23.2642C268.133 23.2642 268.783 23.4432 269.257 23.8011C269.731 24.1558 270.044 24.6314 270.196 25.228ZM275.544 23.3636V24.5568H271.373V23.3636H275.544ZM272.492 21.5341H273.978V28.7578C273.978 29.0462 274.021 29.2633 274.108 29.4091C274.194 29.5516 274.305 29.6494 274.441 29.7024C274.58 29.7521 274.731 29.777 274.893 29.777C275.012 29.777 275.117 29.7687 275.206 29.7521C275.296 29.7356 275.365 29.7223 275.415 29.7124L275.684 30.9403C275.597 30.9735 275.475 31.0066 275.316 31.0398C275.157 31.0762 274.958 31.0961 274.719 31.0994C274.328 31.1061 273.963 31.0365 273.625 30.8906C273.287 30.7448 273.014 30.5194 272.805 30.2145C272.596 29.9096 272.492 29.5268 272.492 29.0661V21.5341ZM282.788 25.228L281.441 25.4666C281.384 25.2943 281.295 25.1302 281.172 24.9744C281.053 24.8187 280.891 24.6911 280.685 24.5916C280.48 24.4922 280.223 24.4425 279.914 24.4425C279.493 24.4425 279.142 24.5369 278.86 24.7259C278.579 24.9115 278.438 25.1518 278.438 25.4467C278.438 25.7019 278.532 25.9074 278.721 26.0632C278.91 26.219 279.215 26.3466 279.636 26.446L280.849 26.7244C281.552 26.8868 282.075 27.1371 282.42 27.4751C282.765 27.8132 282.937 28.2524 282.937 28.7926C282.937 29.25 282.805 29.6577 282.539 30.0156C282.278 30.3703 281.911 30.6487 281.441 30.8509C280.973 31.053 280.431 31.1541 279.815 31.1541C278.96 31.1541 278.262 30.9718 277.722 30.6072C277.182 30.2393 276.85 29.7173 276.728 29.0412L278.164 28.8224C278.254 29.197 278.438 29.4804 278.716 29.6726C278.995 29.8615 279.358 29.956 279.805 29.956C280.292 29.956 280.682 29.8549 280.973 29.6527C281.265 29.4472 281.411 29.197 281.411 28.902C281.411 28.6634 281.321 28.4628 281.142 28.3004C280.967 28.138 280.697 28.0154 280.332 27.9325L279.039 27.6491C278.327 27.4867 277.8 27.2282 277.458 26.8736C277.12 26.5189 276.951 26.0698 276.951 25.5263C276.951 25.0755 277.077 24.6811 277.329 24.343C277.581 24.005 277.929 23.7415 278.373 23.5526C278.817 23.3603 279.326 23.2642 279.9 23.2642C280.725 23.2642 281.374 23.4432 281.848 23.8011C282.322 24.1558 282.636 24.6314 282.788 25.228Z" fill="black"/>
<g filter="url(#filter1_d_4456_877)">
<rect x="300" y="10" width="32" height="32" rx="16" fill="#DE3151"/>
<path d="M322.042 32.0416L318.917 28.9166M309.958 25.1666C309.958 22.2901 312.29 19.9583 315.167 19.9583C318.043 19.9583 320.375 22.2901 320.375 25.1666C320.375 28.0431 318.043 30.3749 315.167 30.3749C312.29 30.3749 309.958 28.0431 309.958 25.1666Z" stroke="white" stroke-width="1.5" stroke-linecap="round" stroke-linejoin="round"/>
</g>
<rect x="6.5" y="2.5" width="333" height="47" rx="23.5" stroke="#E5E7EB"/>
</g>
<defs>
<filter id="filter0_dd_4456_877" x="0" y="0" width="346" height="60" filterUnits="userSpaceOnUse" color-interpolation-filters="sRGB">
<feFlood flood-opacity="0" result="BackgroundImageFix"/>
<feColorMatrix in="SourceAlpha" type="matrix" values="0 0 0 0 0 0 0 0 0 0 0 0 0 0 0 0 0 0 127 0" result="hardAlpha"/>
<feOffset dy="4"/>
<feGaussianBlur stdDeviation="3"/>
<feColorMatrix type="matrix" values="0 0 0 0 0.121569 0 0 0 0 0.160784 0 0 0 0 0.215686 0 0 0 0.1 0"/>
<feBlend mode="normal" in2="BackgroundImageFix" result="effect1_dropShadow_4456_877"/>
<feColorMatrix in="SourceAlpha" type="matrix" values="0 0 0 0 0 0 0 0 0 0 0 0 0 0 0 0 0 0 127 0" result="hardAlpha"/>
<feOffset dy="2"/>
<feGaussianBlur stdDeviation="2"/>
<feColorMatrix type="matrix" values="0 0 0 0 0.121569 0 0 0 0 0.160784 0 0 0 0 0.215686 0 0 0 0.06 0"/>
<feBlend mode="normal" in2="effect1_dropShadow_4456_877" result="effect2_dropShadow_4456_877"/>
<feBlend mode="normal" in="SourceGraphic" in2="effect2_dropShadow_4456_877" result="shape"/>
</filter>
<filter id="filter1_d_4456_877" x="298" y="9" width="36" height="36" filterUnits="userSpaceOnUse" color-interpolation-filters="sRGB">
<feFlood flood-opacity="0" result="BackgroundImageFix"/>
<feColorMatrix in="SourceAlpha" type="matrix" values="0 0 0 0 0 0 0 0 0 0 0 0 0 0 0 0 0 0 127 0" result="hardAlpha"/>
<feOffset dy="1"/>
<feGaussianBlur stdDeviation="1"/>
<feColorMatrix type="matrix" values="0 0 0 0 0.121569 0 0 0 0 0.160784 0 0 0 0 0.215686 0 0 0 0.08 0"/>
<feBlend mode="normal" in2="BackgroundImageFix" result="effect1_dropShadow_4456_877"/>
<feBlend mode="normal" in="SourceGraphic" in2="effect1_dropShadow_4456_877" result="shape"/>
</filter>
</defs>
</svg>
